C:\Users\r0593348\3dpredictsim\Results\Batchsim_tmt_linear_v2\Pog_s1_tmt_aCst_d00_k250_ig24_act_GRF.mot
nRows=27
nColumns=19

name C:\Users\r0593348\3dpredictsim\Results\Batchsim_tmt_linear_v2\Pog_s1_tmt_aCst_d00_k250_ig24_act_GRF.mot
datacolumns 19
datarows 27
range 0.0000000000 0.2674057783
endheader
time 	ground_force_vx	ground_force_vy	ground_force_vz	ground_force_px	ground_force_py	ground_force_pz	1_ground_force_vx	1_ground_force_vy	1_ground_force_vz	1_ground_force_px	1_ground_force_py	1_ground_force_pz	ground_torque_x	ground_torque_y	ground_torque_z	1_ground_torque_x	1_ground_torque_y	1_ground_torque_z
        0.0000000000	     -128.9642222619	       98.0521313368	        1.3396036243	        0.2599370608	        0.0000000000	        0.0506747849	       34.3696864459	      266.9410988946	      -13.7500894868	       -0.3242528115	        0.0000000000	       -0.0476048233	        0.0000000000	        0.0000000000	        0.0000000000	        0.0000000000	        0.0000000000	        0.0000000000	
        0.0102848376	     -194.7922631699	      180.3387856271	        2.5178504876	        0.2402524053	        0.0000000000	        0.0553169637	       37.5329875081	      240.8748492207	      -13.8277671704	       -0.3240532377	        0.0000000000	       -0.0476001901	        0.0000000000	        0.0000000000	        0.0000000000	        0.0000000000	        0.0000000000	        0.0000000000	
        0.0205696753	     -126.8775860568	      374.1725081216	        1.6087850766	        0.2165415074	        0.0000000000	        0.0596815139	       39.2448869972	      207.5257137904	      -17.1902323305	       -0.3237501271	        0.0000000000	       -0.0477933472	        0.0000000000	        0.0000000000	        0.0000000000	        0.0000000000	        0.0000000000	        0.0000000000	
        0.0308545129	     -105.8486886654	      566.0567318100	       -3.8056609848	        0.2015964105	        0.0000000000	        0.0601714258	       35.0043393130	      168.9382641514	      -20.5559860130	       -0.3236827870	        0.0000000000	       -0.0480721217	        0.0000000000	        0.0000000000	        0.0000000000	        0.0000000000	        0.0000000000	        0.0000000000	
        0.0411393505	     -113.4904300660	      777.2271217258	       -9.2895001640	        0.1928179039	        0.0000000000	        0.0597563236	       24.6538118839	      122.0864716489	      -21.5396527478	       -0.3238744415	        0.0000000000	       -0.0484029851	        0.0000000000	        0.0000000000	        0.0000000000	        0.0000000000	        0.0000000000	        0.0000000000	
        0.0514241881	     -121.6838018536	      926.3293453240	      -11.7832924132	        0.1871757492	        0.0000000000	        0.0590958062	        7.5031952201	       62.3125382193	      -17.3223061132	       -0.3247305817	        0.0000000000	       -0.0489853498	        0.0000000000	        0.0000000000	        0.0000000000	        0.0000000000	        0.0000000000	        0.0000000000	
        0.0617090258	     -119.6792109589	      976.9514035147	      -11.4671015167	        0.1842740146	        0.0000000000	        0.0582943091	       -9.4375165686	       13.6729713821	       -6.4168117263	       -0.3315120978	        0.0000000000	       -0.0498052134	        0.0000000000	        0.0000000000	        0.0000000000	        0.0000000000	        0.0000000000	        0.0000000000	
        0.0719938634	     -111.7832802488	      968.0677265896	       -9.6528067394	        0.1826192912	        0.0000000000	        0.0573884221	      -14.6425493576	       12.7466420391	       -1.6403083083	       -0.3284231074	        0.0000000000	       -0.0456938997	        0.0000000000	        0.0000000000	        0.0000000000	        0.0000000000	        0.0000000000	        0.0000000000	
        0.0822787010	      -99.7905811274	      934.0796305614	       -8.9113794476	        0.1822990247	        0.0000000000	        0.0566588687	      -19.2044315114	       14.1825693326	       -1.1129538666	       -0.3175495476	        0.0000000000	       -0.0448024014	        0.0000000000	        0.0000000000	        0.0000000000	        0.0000000000	        0.0000000000	        0.0000000000	
        0.0925635386	      -87.4424257064	      892.4826184178	      -10.8432519638	        0.1834644802	        0.0000000000	        0.0561883789	      -20.4345085521	       13.3777166991	       -0.7633302050	       -0.3024831581	        0.0000000000	       -0.0442442389	        0.0000000000	        0.0000000000	        0.0000000000	        0.0000000000	        0.0000000000	        0.0000000000	
        0.1028483763	      -76.2559348937	      853.4965894309	      -13.4888307958	        0.1855860238	        0.0000000000	        0.0558765794	      -19.4601592314	       11.5343051509	       -0.3428562367	       -0.2839846012	        0.0000000000	       -0.0438132699	        0.0000000000	        0.0000000000	        0.0000000000	        0.0000000000	        0.0000000000	        0.0000000000	
        0.1131332139	      -65.8290155419	      818.6357516007	      -14.7730758261	        0.1881339642	        0.0000000000	        0.0556694609	      -15.4109538140	        8.4321379546	       -0.0889959735	        0.0000000000	        0.0000000000	        0.0000000000	        0.0000000000	        0.0000000000	        0.0000000000	        0.0000000000	        0.0000000000	        0.0000000000	
        0.1234180515	      -56.3887752106	      788.5183978334	      -15.2046442628	        0.1906965632	        0.0000000000	        0.0554914174	      -10.1620179074	        5.2509894344	       -0.0446161346	        0.0000000000	        0.0000000000	        0.0000000000	        0.0000000000	        0.0000000000	        0.0000000000	        0.0000000000	        0.0000000000	        0.0000000000	
        0.1337028891	      -47.2990648473	      762.1718218220	      -15.9744124350	        0.1929856293	        0.0000000000	        0.0552904590	       -6.2264767271	        3.0547600346	       -0.0082756925	        0.0000000000	        0.0000000000	        0.0000000000	        0.0000000000	        0.0000000000	        0.0000000000	        0.0000000000	        0.0000000000	        0.0000000000	
        0.1439877268	      -39.7857075863	      737.9187759945	      -17.0241833809	        0.1950308772	        0.0000000000	        0.0550960375	       -4.3175084315	        2.0298767978	        0.0032862192	        0.0000000000	        0.0000000000	        0.0000000000	        0.0000000000	        0.0000000000	        0.0000000000	        0.0000000000	        0.0000000000	        0.0000000000	
        0.1542725644	      -33.1101579642	      713.6099547695	      -18.0496540045	        0.1969558602	        0.0000000000	        0.0549454258	       -3.2835427135	        1.4908250245	        0.0051941657	        0.0000000000	        0.0000000000	        0.0000000000	        0.0000000000	        0.0000000000	        0.0000000000	        0.0000000000	        0.0000000000	        0.0000000000	
        0.1645574020	      -26.8575687667	      689.8666352609	      -18.8631875393	        0.1987788987	        0.0000000000	        0.0548421457	       -2.4516207305	        1.0790278382	        0.0060089775	        0.0000000000	        0.0000000000	        0.0000000000	        0.0000000000	        0.0000000000	        0.0000000000	        0.0000000000	        0.0000000000	        0.0000000000	
        0.1748422396	      -21.2241080704	      667.5724657158	      -19.7187915056	        0.2004953179	        0.0000000000	        0.0547807946	       -1.8153954571	        0.7779367494	        0.0059626011	        0.0000000000	        0.0000000000	        0.0000000000	        0.0000000000	        0.0000000000	        0.0000000000	        0.0000000000	        0.0000000000	        0.0000000000	
        0.1851270773	      -16.0276540883	      647.4434969909	      -20.7066496423	        0.2020727894	        0.0000000000	        0.0547609715	       -1.3803413522	        0.5783696133	        0.0052177277	        0.0000000000	        0.0000000000	        0.0000000000	        0.0000000000	        0.0000000000	        0.0000000000	        0.0000000000	        0.0000000000	        0.0000000000	
        0.1954119149	      -11.1574352404	      629.3400148654	      -21.6399003323	        0.2035346395	        0.0000000000	        0.0547676288	       -1.1026369145	        0.4536902777	        0.0046284656	        0.0000000000	        0.0000000000	        0.0000000000	        0.0000000000	        0.0000000000	        0.0000000000	        0.0000000000	        0.0000000000	        0.0000000000	
        0.2056967525	       -6.6965588299	      612.4548762137	      -22.3276456519	        0.2049736353	        0.0000000000	        0.0547673061	       -0.9377461923	        0.3804250234	        0.0042039846	        0.0000000000	        0.0000000000	        0.0000000000	        0.0000000000	        0.0000000000	        0.0000000000	        0.0000000000	        0.0000000000	        0.0000000000	
        0.2159815901	       -2.5757739463	      596.8412566163	      -22.7489994650	        0.2064030157	        0.0000000000	        0.0547435642	       -0.8531567156	        0.3422565907	        0.0042248470	        0.0000000000	        0.0000000000	        0.0000000000	        0.0000000000	        0.0000000000	        0.0000000000	        0.0000000000	        0.0000000000	        0.0000000000	
        0.2262664278	        1.4157388904	      582.7357609016	      -22.7755523236	        0.2078129061	        0.0000000000	        0.0546871184	       -0.8266217524	        0.3284660338	        0.0049240868	        0.0000000000	        0.0000000000	        0.0000000000	        0.0000000000	        0.0000000000	        0.0000000000	        0.0000000000	        0.0000000000	        0.0000000000	
        0.2365512654	        5.5729334896	      570.3426407365	      -22.3908829153	        0.2091870422	        0.0000000000	        0.0545885820	       -0.8488615727	        0.3342640430	        0.0064507642	        0.0000000000	        0.0000000000	        0.0000000000	        0.0000000000	        0.0000000000	        0.0000000000	        0.0000000000	        0.0000000000	        0.0000000000	
        0.2468361030	        9.9843853680	      559.8530054504	      -21.6326298220	        0.2105208986	        0.0000000000	        0.0544401861	       -0.9252157988	        0.3609129043	        0.0089636408	        0.0000000000	        0.0000000000	        0.0000000000	        0.0000000000	        0.0000000000	        0.0000000000	        0.0000000000	        0.0000000000	        0.0000000000	
        0.2571209406	       13.8189889208	      549.2700811567	      -20.4899039386	        0.2119243042	        0.0000000000	        0.0542213201	       -1.0628113127	        0.4106142615	        0.0125132994	        0.0000000000	        0.0000000000	        0.0000000000	        0.0000000000	        0.0000000000	        0.0000000000	        0.0000000000	        0.0000000000	        0.0000000000	
        0.2674057783	       17.1679512936	      537.7776210940	      -18.3523294148	        0.2134632469	        0.0000000000	        0.0539160021	       -1.2652630241	        0.4844605741	        0.0167575798	        0.0000000000	        0.0000000000	        0.0000000000	        0.0000000000	        0.0000000000	        0.0000000000	        0.0000000000	        0.0000000000	        0.0000000000	
